<mxfile host="app.diagrams.net" modified="2022-10-27T12:42:53.354Z" agent="5.0 (Windows NT 10.0; Win64; x64) AppleWebKit/537.36 (KHTML, like Gecko) Chrome/106.0.0.0 Safari/537.36" etag="nU0a2mXUEridhdqyrSwj" version="20.5.1" type="github">
  <diagram id="lKPQlYHoAFzWkv6730R9" name="Page-1">
    <mxGraphModel dx="1888" dy="1647" grid="1" gridSize="10" guides="1" tooltips="1" connect="1" arrows="1" fold="1" page="1" pageScale="1" pageWidth="850" pageHeight="1100" math="0" shadow="0">
      <root>
        <mxCell id="0" />
        <mxCell id="1" parent="0" />
        <mxCell id="QWSr2dPoSX79S-F1tUNh-1" value="EMPLOYEES" style="whiteSpace=wrap;html=1;align=center;" parent="1" vertex="1">
          <mxGeometry x="390" y="280" width="100" height="40" as="geometry" />
        </mxCell>
        <mxCell id="QWSr2dPoSX79S-F1tUNh-2" value="Emp_ID" style="ellipse;whiteSpace=wrap;html=1;align=center;fontStyle=4;" parent="1" vertex="1">
          <mxGeometry x="540" y="180" width="100" height="40" as="geometry" />
        </mxCell>
        <mxCell id="QWSr2dPoSX79S-F1tUNh-3" value="Name" style="ellipse;whiteSpace=wrap;html=1;align=center;" parent="1" vertex="1">
          <mxGeometry x="170" y="300" width="100" height="40" as="geometry" />
        </mxCell>
        <mxCell id="QWSr2dPoSX79S-F1tUNh-4" value="DOB" style="ellipse;whiteSpace=wrap;html=1;align=center;" parent="1" vertex="1">
          <mxGeometry x="240" y="160" width="100" height="40" as="geometry" />
        </mxCell>
        <mxCell id="QWSr2dPoSX79S-F1tUNh-5" value="Gender" style="ellipse;whiteSpace=wrap;html=1;align=center;" parent="1" vertex="1">
          <mxGeometry x="390" y="380" width="100" height="40" as="geometry" />
        </mxCell>
        <mxCell id="QWSr2dPoSX79S-F1tUNh-6" value="Job_salary" style="ellipse;whiteSpace=wrap;html=1;align=center;" parent="1" vertex="1">
          <mxGeometry x="60" y="460" width="100" height="40" as="geometry" />
        </mxCell>
        <mxCell id="QWSr2dPoSX79S-F1tUNh-8" value="Hire_date" style="ellipse;whiteSpace=wrap;html=1;align=center;" parent="1" vertex="1">
          <mxGeometry x="170" y="220" width="100" height="40" as="geometry" />
        </mxCell>
        <mxCell id="QWSr2dPoSX79S-F1tUNh-9" value="ROLES" style="whiteSpace=wrap;html=1;align=center;" parent="1" vertex="1">
          <mxGeometry x="740" y="280" width="100" height="40" as="geometry" />
        </mxCell>
        <mxCell id="QWSr2dPoSX79S-F1tUNh-11" value="HAS" style="shape=rhombus;perimeter=rhombusPerimeter;whiteSpace=wrap;html=1;align=center;" parent="1" vertex="1">
          <mxGeometry x="560" y="270" width="120" height="60" as="geometry" />
        </mxCell>
        <mxCell id="QWSr2dPoSX79S-F1tUNh-12" value="" style="endArrow=none;html=1;rounded=0;exitX=1;exitY=0.5;exitDx=0;exitDy=0;entryX=0;entryY=0.5;entryDx=0;entryDy=0;" parent="1" source="QWSr2dPoSX79S-F1tUNh-1" target="QWSr2dPoSX79S-F1tUNh-11" edge="1">
          <mxGeometry relative="1" as="geometry">
            <mxPoint x="550" y="280" as="sourcePoint" />
            <mxPoint x="710" y="280" as="targetPoint" />
          </mxGeometry>
        </mxCell>
        <mxCell id="QWSr2dPoSX79S-F1tUNh-13" value="" style="endArrow=none;html=1;rounded=0;exitX=1;exitY=0.5;exitDx=0;exitDy=0;entryX=0;entryY=0.5;entryDx=0;entryDy=0;" parent="1" source="QWSr2dPoSX79S-F1tUNh-11" target="QWSr2dPoSX79S-F1tUNh-9" edge="1">
          <mxGeometry relative="1" as="geometry">
            <mxPoint x="550" y="280" as="sourcePoint" />
            <mxPoint x="710" y="280" as="targetPoint" />
          </mxGeometry>
        </mxCell>
        <mxCell id="QWSr2dPoSX79S-F1tUNh-14" value="" style="endArrow=none;html=1;rounded=0;exitX=0.5;exitY=1;exitDx=0;exitDy=0;entryX=0.5;entryY=0;entryDx=0;entryDy=0;" parent="1" source="QWSr2dPoSX79S-F1tUNh-2" target="QWSr2dPoSX79S-F1tUNh-1" edge="1">
          <mxGeometry relative="1" as="geometry">
            <mxPoint x="550" y="280" as="sourcePoint" />
            <mxPoint x="710" y="280" as="targetPoint" />
          </mxGeometry>
        </mxCell>
        <mxCell id="QWSr2dPoSX79S-F1tUNh-15" value="" style="endArrow=none;html=1;rounded=0;exitX=0.5;exitY=1;exitDx=0;exitDy=0;entryX=0;entryY=0;entryDx=0;entryDy=0;" parent="1" source="QWSr2dPoSX79S-F1tUNh-4" target="QWSr2dPoSX79S-F1tUNh-1" edge="1">
          <mxGeometry relative="1" as="geometry">
            <mxPoint x="550" y="280" as="sourcePoint" />
            <mxPoint x="710" y="280" as="targetPoint" />
          </mxGeometry>
        </mxCell>
        <mxCell id="QWSr2dPoSX79S-F1tUNh-16" value="" style="endArrow=none;html=1;rounded=0;exitX=1;exitY=0.5;exitDx=0;exitDy=0;entryX=0;entryY=0.5;entryDx=0;entryDy=0;" parent="1" source="QWSr2dPoSX79S-F1tUNh-8" target="QWSr2dPoSX79S-F1tUNh-1" edge="1">
          <mxGeometry relative="1" as="geometry">
            <mxPoint x="550" y="280" as="sourcePoint" />
            <mxPoint x="710" y="280" as="targetPoint" />
          </mxGeometry>
        </mxCell>
        <mxCell id="QWSr2dPoSX79S-F1tUNh-17" value="" style="endArrow=none;html=1;rounded=0;exitX=1;exitY=0.5;exitDx=0;exitDy=0;entryX=0;entryY=1;entryDx=0;entryDy=0;" parent="1" source="QWSr2dPoSX79S-F1tUNh-3" target="QWSr2dPoSX79S-F1tUNh-1" edge="1">
          <mxGeometry relative="1" as="geometry">
            <mxPoint x="550" y="280" as="sourcePoint" />
            <mxPoint x="710" y="280" as="targetPoint" />
          </mxGeometry>
        </mxCell>
        <mxCell id="6bv1ZnGGzLy5upm-WNol-1" value="Role_name" style="ellipse;whiteSpace=wrap;html=1;align=center;" parent="1" vertex="1">
          <mxGeometry x="740" y="380" width="100" height="40" as="geometry" />
        </mxCell>
        <mxCell id="6bv1ZnGGzLy5upm-WNol-2" value="Empl_ID" style="ellipse;whiteSpace=wrap;html=1;align=center;" parent="1" vertex="1">
          <mxGeometry x="920" y="280" width="100" height="40" as="geometry" />
        </mxCell>
        <mxCell id="6bv1ZnGGzLy5upm-WNol-5" value="" style="edgeStyle=entityRelationEdgeStyle;fontSize=12;html=1;endArrow=ERmandOne;rounded=0;entryX=0.5;entryY=1;entryDx=0;entryDy=0;exitX=0.5;exitY=0;exitDx=0;exitDy=0;" parent="1" source="QWSr2dPoSX79S-F1tUNh-9" edge="1">
          <mxGeometry width="100" height="100" relative="1" as="geometry">
            <mxPoint x="610" y="330" as="sourcePoint" />
            <mxPoint x="790" y="200" as="targetPoint" />
          </mxGeometry>
        </mxCell>
        <mxCell id="6bv1ZnGGzLy5upm-WNol-6" value="" style="edgeStyle=entityRelationEdgeStyle;fontSize=12;html=1;endArrow=ERmandOne;rounded=0;entryX=0.5;entryY=1;entryDx=0;entryDy=0;exitX=0.5;exitY=0;exitDx=0;exitDy=0;" parent="1" source="6bv1ZnGGzLy5upm-WNol-1" target="QWSr2dPoSX79S-F1tUNh-9" edge="1">
          <mxGeometry width="100" height="100" relative="1" as="geometry">
            <mxPoint x="610" y="330" as="sourcePoint" />
            <mxPoint x="710" y="230" as="targetPoint" />
          </mxGeometry>
        </mxCell>
        <mxCell id="6bv1ZnGGzLy5upm-WNol-7" value="" style="edgeStyle=entityRelationEdgeStyle;fontSize=12;html=1;endArrow=ERmandOne;rounded=0;entryX=0;entryY=0.5;entryDx=0;entryDy=0;exitX=1;exitY=0.5;exitDx=0;exitDy=0;" parent="1" source="QWSr2dPoSX79S-F1tUNh-9" target="6bv1ZnGGzLy5upm-WNol-2" edge="1">
          <mxGeometry width="100" height="100" relative="1" as="geometry">
            <mxPoint x="610" y="330" as="sourcePoint" />
            <mxPoint x="710" y="230" as="targetPoint" />
          </mxGeometry>
        </mxCell>
        <mxCell id="6bv1ZnGGzLy5upm-WNol-8" value="DEPARTMENT" style="whiteSpace=wrap;html=1;align=center;" parent="1" vertex="1">
          <mxGeometry x="390" y="70" width="100" height="40" as="geometry" />
        </mxCell>
        <mxCell id="6bv1ZnGGzLy5upm-WNol-9" value="Dep_ID" style="ellipse;whiteSpace=wrap;html=1;align=center;fontStyle=4;" parent="1" vertex="1">
          <mxGeometry x="390" y="-50" width="100" height="40" as="geometry" />
        </mxCell>
        <mxCell id="6bv1ZnGGzLy5upm-WNol-11" value="DEP_MANAGER" style="whiteSpace=wrap;html=1;align=center;" parent="1" vertex="1">
          <mxGeometry x="-30" y="70" width="100" height="40" as="geometry" />
        </mxCell>
        <mxCell id="6bv1ZnGGzLy5upm-WNol-14" value="Dep_ID" style="ellipse;whiteSpace=wrap;html=1;align=center;fontStyle=4;" parent="1" vertex="1">
          <mxGeometry x="740" y="160" width="100" height="40" as="geometry" />
        </mxCell>
        <mxCell id="6bv1ZnGGzLy5upm-WNol-15" value="Date_start" style="ellipse;whiteSpace=wrap;html=1;align=center;" parent="1" vertex="1">
          <mxGeometry x="-70" y="-50" width="100" height="40" as="geometry" />
        </mxCell>
        <mxCell id="6bv1ZnGGzLy5upm-WNol-16" value="Dep_name" style="ellipse;whiteSpace=wrap;html=1;align=center;" parent="1" vertex="1">
          <mxGeometry x="540" width="100" height="40" as="geometry" />
        </mxCell>
        <mxCell id="6bv1ZnGGzLy5upm-WNol-17" value="HAS" style="shape=rhombus;perimeter=rhombusPerimeter;whiteSpace=wrap;html=1;align=center;" parent="1" vertex="1">
          <mxGeometry x="380" y="170" width="120" height="60" as="geometry" />
        </mxCell>
        <mxCell id="6bv1ZnGGzLy5upm-WNol-18" value="" style="endArrow=none;html=1;rounded=0;entryX=0.5;entryY=1;entryDx=0;entryDy=0;" parent="1" target="6bv1ZnGGzLy5upm-WNol-17" edge="1">
          <mxGeometry relative="1" as="geometry">
            <mxPoint x="440" y="280" as="sourcePoint" />
            <mxPoint x="570" y="250" as="targetPoint" />
          </mxGeometry>
        </mxCell>
        <mxCell id="6bv1ZnGGzLy5upm-WNol-20" value="HAS" style="shape=rhombus;perimeter=rhombusPerimeter;whiteSpace=wrap;html=1;align=center;" parent="1" vertex="1">
          <mxGeometry x="160" y="60" width="120" height="60" as="geometry" />
        </mxCell>
        <mxCell id="6bv1ZnGGzLy5upm-WNol-27" value="" style="endArrow=none;html=1;rounded=0;exitX=0.75;exitY=0;exitDx=0;exitDy=0;entryX=0.5;entryY=1;entryDx=0;entryDy=0;" parent="1" source="6bv1ZnGGzLy5upm-WNol-11" edge="1">
          <mxGeometry relative="1" as="geometry">
            <mxPoint x="320" y="190" as="sourcePoint" />
            <mxPoint x="130" y="-10" as="targetPoint" />
          </mxGeometry>
        </mxCell>
        <mxCell id="6bv1ZnGGzLy5upm-WNol-35" value="" style="endArrow=none;html=1;rounded=0;entryX=0;entryY=0.5;entryDx=0;entryDy=0;exitX=1;exitY=0;exitDx=0;exitDy=0;" parent="1" source="6bv1ZnGGzLy5upm-WNol-8" target="6bv1ZnGGzLy5upm-WNol-16" edge="1">
          <mxGeometry relative="1" as="geometry">
            <mxPoint x="410" y="170" as="sourcePoint" />
            <mxPoint x="570" y="170" as="targetPoint" />
          </mxGeometry>
        </mxCell>
        <mxCell id="6bv1ZnGGzLy5upm-WNol-40" value="EMPL_SALARY" style="whiteSpace=wrap;html=1;align=center;" parent="1" vertex="1">
          <mxGeometry x="180" y="530" width="100" height="40" as="geometry" />
        </mxCell>
        <mxCell id="6bv1ZnGGzLy5upm-WNol-42" value="Promotion&lt;br&gt;Role_ID" style="ellipse;whiteSpace=wrap;html=1;align=center;" parent="1" vertex="1">
          <mxGeometry x="380" y="530" width="100" height="40" as="geometry" />
        </mxCell>
        <mxCell id="6bv1ZnGGzLy5upm-WNol-43" value="Date_promotion" style="ellipse;whiteSpace=wrap;html=1;align=center;" parent="1" vertex="1">
          <mxGeometry x="260" y="620" width="100" height="40" as="geometry" />
        </mxCell>
        <mxCell id="6bv1ZnGGzLy5upm-WNol-44" value="Increase" style="ellipse;whiteSpace=wrap;html=1;align=center;" parent="1" vertex="1">
          <mxGeometry x="10" y="530" width="100" height="40" as="geometry" />
        </mxCell>
        <mxCell id="6bv1ZnGGzLy5upm-WNol-45" value="Date_increase" style="ellipse;whiteSpace=wrap;html=1;align=center;" parent="1" vertex="1">
          <mxGeometry x="40" y="620" width="100" height="40" as="geometry" />
        </mxCell>
        <mxCell id="6bv1ZnGGzLy5upm-WNol-47" value="" style="endArrow=none;html=1;rounded=0;exitX=1;exitY=0.5;exitDx=0;exitDy=0;entryX=0;entryY=0.5;entryDx=0;entryDy=0;" parent="1" source="6bv1ZnGGzLy5upm-WNol-44" target="6bv1ZnGGzLy5upm-WNol-40" edge="1">
          <mxGeometry relative="1" as="geometry">
            <mxPoint x="240" y="470" as="sourcePoint" />
            <mxPoint x="400" y="470" as="targetPoint" />
          </mxGeometry>
        </mxCell>
        <mxCell id="6bv1ZnGGzLy5upm-WNol-48" value="" style="endArrow=none;html=1;rounded=0;entryX=0;entryY=1;entryDx=0;entryDy=0;" parent="1" source="6bv1ZnGGzLy5upm-WNol-45" target="6bv1ZnGGzLy5upm-WNol-40" edge="1">
          <mxGeometry relative="1" as="geometry">
            <mxPoint x="240" y="470" as="sourcePoint" />
            <mxPoint x="400" y="470" as="targetPoint" />
          </mxGeometry>
        </mxCell>
        <mxCell id="6bv1ZnGGzLy5upm-WNol-49" value="" style="endArrow=none;html=1;rounded=0;exitX=0.75;exitY=1;exitDx=0;exitDy=0;entryX=0.5;entryY=0;entryDx=0;entryDy=0;" parent="1" source="6bv1ZnGGzLy5upm-WNol-40" target="6bv1ZnGGzLy5upm-WNol-43" edge="1">
          <mxGeometry relative="1" as="geometry">
            <mxPoint x="240" y="470" as="sourcePoint" />
            <mxPoint x="330" y="610" as="targetPoint" />
          </mxGeometry>
        </mxCell>
        <mxCell id="Js3-yp5ArHFeaTS7gBp5-1" value="HAS" style="shape=rhombus;perimeter=rhombusPerimeter;whiteSpace=wrap;html=1;align=center;" vertex="1" parent="1">
          <mxGeometry x="170" y="390" width="120" height="60" as="geometry" />
        </mxCell>
        <mxCell id="Js3-yp5ArHFeaTS7gBp5-2" value="" style="endArrow=none;html=1;rounded=0;exitX=0.5;exitY=0;exitDx=0;exitDy=0;entryX=0.25;entryY=1;entryDx=0;entryDy=0;" edge="1" parent="1" source="Js3-yp5ArHFeaTS7gBp5-1" target="QWSr2dPoSX79S-F1tUNh-1">
          <mxGeometry relative="1" as="geometry">
            <mxPoint x="420" y="340" as="sourcePoint" />
            <mxPoint x="580" y="340" as="targetPoint" />
          </mxGeometry>
        </mxCell>
        <mxCell id="Js3-yp5ArHFeaTS7gBp5-4" value="" style="endArrow=none;html=1;rounded=0;exitX=0;exitY=0;exitDx=0;exitDy=0;entryX=0.5;entryY=1;entryDx=0;entryDy=0;" edge="1" parent="1" source="6bv1ZnGGzLy5upm-WNol-40" target="QWSr2dPoSX79S-F1tUNh-6">
          <mxGeometry relative="1" as="geometry">
            <mxPoint x="340" y="450" as="sourcePoint" />
            <mxPoint x="500" y="450" as="targetPoint" />
          </mxGeometry>
        </mxCell>
        <mxCell id="Js3-yp5ArHFeaTS7gBp5-5" value="" style="endArrow=none;html=1;rounded=0;exitX=0.5;exitY=0;exitDx=0;exitDy=0;entryX=0.5;entryY=1;entryDx=0;entryDy=0;entryPerimeter=0;" edge="1" parent="1" source="QWSr2dPoSX79S-F1tUNh-5" target="QWSr2dPoSX79S-F1tUNh-1">
          <mxGeometry relative="1" as="geometry">
            <mxPoint x="420" y="290" as="sourcePoint" />
            <mxPoint x="580" y="290" as="targetPoint" />
          </mxGeometry>
        </mxCell>
        <mxCell id="Js3-yp5ArHFeaTS7gBp5-6" value="Dep_ID" style="ellipse;whiteSpace=wrap;html=1;align=center;fontStyle=4;" vertex="1" parent="1">
          <mxGeometry x="-140" y="160" width="100" height="40" as="geometry" />
        </mxCell>
        <mxCell id="Js3-yp5ArHFeaTS7gBp5-7" value="Date_end" style="ellipse;whiteSpace=wrap;html=1;align=center;" vertex="1" parent="1">
          <mxGeometry x="-220" y="70" width="100" height="40" as="geometry" />
        </mxCell>
        <mxCell id="Js3-yp5ArHFeaTS7gBp5-8" value="" style="endArrow=none;html=1;rounded=0;exitX=1;exitY=0.5;exitDx=0;exitDy=0;entryX=0;entryY=0.5;entryDx=0;entryDy=0;" edge="1" parent="1" source="Js3-yp5ArHFeaTS7gBp5-7" target="6bv1ZnGGzLy5upm-WNol-11">
          <mxGeometry relative="1" as="geometry">
            <mxPoint x="50" y="140" as="sourcePoint" />
            <mxPoint x="210" y="140" as="targetPoint" />
          </mxGeometry>
        </mxCell>
        <mxCell id="Js3-yp5ArHFeaTS7gBp5-10" value="" style="endArrow=none;html=1;rounded=0;exitX=1;exitY=0;exitDx=0;exitDy=0;entryX=0.5;entryY=1;entryDx=0;entryDy=0;" edge="1" parent="1" source="Js3-yp5ArHFeaTS7gBp5-6" target="6bv1ZnGGzLy5upm-WNol-11">
          <mxGeometry relative="1" as="geometry">
            <mxPoint x="50" y="140" as="sourcePoint" />
            <mxPoint x="210" y="140" as="targetPoint" />
          </mxGeometry>
        </mxCell>
        <mxCell id="Js3-yp5ArHFeaTS7gBp5-11" value="Empl_ID" style="ellipse;whiteSpace=wrap;html=1;align=center;fontStyle=4;" vertex="1" parent="1">
          <mxGeometry x="80" y="-50" width="100" height="40" as="geometry" />
        </mxCell>
        <mxCell id="Js3-yp5ArHFeaTS7gBp5-12" value="" style="endArrow=none;html=1;rounded=0;exitX=0.5;exitY=1;exitDx=0;exitDy=0;entryX=0.432;entryY=0.005;entryDx=0;entryDy=0;entryPerimeter=0;" edge="1" parent="1" source="6bv1ZnGGzLy5upm-WNol-15" target="6bv1ZnGGzLy5upm-WNol-11">
          <mxGeometry relative="1" as="geometry">
            <mxPoint x="50" y="140" as="sourcePoint" />
            <mxPoint x="210" y="140" as="targetPoint" />
          </mxGeometry>
        </mxCell>
        <mxCell id="Js3-yp5ArHFeaTS7gBp5-13" value="PPSN" style="ellipse;whiteSpace=wrap;html=1;align=center;" vertex="1" parent="1">
          <mxGeometry x="540" y="380" width="100" height="40" as="geometry" />
        </mxCell>
        <mxCell id="Js3-yp5ArHFeaTS7gBp5-14" value="" style="endArrow=none;html=1;rounded=0;entryX=0.5;entryY=0;entryDx=0;entryDy=0;exitX=1;exitY=1;exitDx=0;exitDy=0;" edge="1" parent="1" source="QWSr2dPoSX79S-F1tUNh-1" target="Js3-yp5ArHFeaTS7gBp5-13">
          <mxGeometry relative="1" as="geometry">
            <mxPoint x="250" y="340" as="sourcePoint" />
            <mxPoint x="410" y="340" as="targetPoint" />
          </mxGeometry>
        </mxCell>
        <mxCell id="Js3-yp5ArHFeaTS7gBp5-15" value="" style="endArrow=none;html=1;rounded=0;exitX=0.5;exitY=0;exitDx=0;exitDy=0;entryX=0.5;entryY=1;entryDx=0;entryDy=0;" edge="1" parent="1" source="6bv1ZnGGzLy5upm-WNol-40" target="Js3-yp5ArHFeaTS7gBp5-1">
          <mxGeometry relative="1" as="geometry">
            <mxPoint x="250" y="380" as="sourcePoint" />
            <mxPoint x="410" y="380" as="targetPoint" />
          </mxGeometry>
        </mxCell>
        <mxCell id="Js3-yp5ArHFeaTS7gBp5-16" value="" style="endArrow=none;html=1;rounded=0;exitX=1;exitY=0.5;exitDx=0;exitDy=0;" edge="1" parent="1" source="6bv1ZnGGzLy5upm-WNol-11" target="6bv1ZnGGzLy5upm-WNol-20">
          <mxGeometry relative="1" as="geometry">
            <mxPoint x="200" y="170" as="sourcePoint" />
            <mxPoint x="360" y="170" as="targetPoint" />
          </mxGeometry>
        </mxCell>
        <mxCell id="Js3-yp5ArHFeaTS7gBp5-17" value="" style="endArrow=none;html=1;rounded=0;exitX=1;exitY=0.5;exitDx=0;exitDy=0;entryX=0;entryY=0.5;entryDx=0;entryDy=0;" edge="1" parent="1" source="6bv1ZnGGzLy5upm-WNol-20" target="6bv1ZnGGzLy5upm-WNol-8">
          <mxGeometry relative="1" as="geometry">
            <mxPoint x="200" y="170" as="sourcePoint" />
            <mxPoint x="360" y="170" as="targetPoint" />
          </mxGeometry>
        </mxCell>
        <mxCell id="Js3-yp5ArHFeaTS7gBp5-18" value="" style="endArrow=none;html=1;rounded=0;entryX=0.5;entryY=1;entryDx=0;entryDy=0;" edge="1" parent="1" source="6bv1ZnGGzLy5upm-WNol-8" target="6bv1ZnGGzLy5upm-WNol-9">
          <mxGeometry relative="1" as="geometry">
            <mxPoint x="200" y="170" as="sourcePoint" />
            <mxPoint x="360" y="170" as="targetPoint" />
          </mxGeometry>
        </mxCell>
        <mxCell id="Js3-yp5ArHFeaTS7gBp5-19" value="" style="endArrow=none;html=1;rounded=0;exitX=0.5;exitY=1;exitDx=0;exitDy=0;entryX=0.5;entryY=0;entryDx=0;entryDy=0;" edge="1" parent="1" source="6bv1ZnGGzLy5upm-WNol-8" target="6bv1ZnGGzLy5upm-WNol-17">
          <mxGeometry relative="1" as="geometry">
            <mxPoint x="300" y="150" as="sourcePoint" />
            <mxPoint x="460" y="150" as="targetPoint" />
          </mxGeometry>
        </mxCell>
        <mxCell id="Js3-yp5ArHFeaTS7gBp5-20" value="" style="endArrow=none;html=1;rounded=0;exitX=1;exitY=0.5;exitDx=0;exitDy=0;entryX=0;entryY=0.5;entryDx=0;entryDy=0;" edge="1" parent="1" source="6bv1ZnGGzLy5upm-WNol-40" target="6bv1ZnGGzLy5upm-WNol-42">
          <mxGeometry relative="1" as="geometry">
            <mxPoint x="520" y="490" as="sourcePoint" />
            <mxPoint x="680" y="490" as="targetPoint" />
          </mxGeometry>
        </mxCell>
      </root>
    </mxGraphModel>
  </diagram>
</mxfile>
